HIERARCHY
ROOT Hips
{
	OFFSET 0.000000 0.000000 0.000000
	CHANNELS 6 Xposition Yposition Zposition Xrotation Yrotation Zrotation
	JOINT LeftUpLeg_virtual
	{
		OFFSET 0.000000 0.000000 0.000000
		CHANNELS 3 Xrotation Yrotation Zrotation
		JOINT LeftUpLeg
		{
			OFFSET 15.427100 -6.655098 0.678600
			CHANNELS 3 Xrotation Yrotation Zrotation
			JOINT LeftLeg
			{
				OFFSET 4.081073 -39.591068 13.024000
				CHANNELS 3 Xrotation Yrotation Zrotation
				JOINT LeftFoot
				{
					OFFSET -4.081074 -37.707932 -15.979700
					CHANNELS 3 Xrotation Yrotation Zrotation
					JOINT LeftToeBase
					{
						OFFSET 5.346399 -15.068900 20.645000
						CHANNELS 3 Xrotation Yrotation Zrotation
						JOINT LeftToe_End
						{
							OFFSET 2.754700 0.931300 11.300900
							CHANNELS 3 Xrotation Yrotation Zrotation
							End Site
							{
								OFFSET 0 0 0
							}
						}
					}
				}
			}
		}
	}
	JOINT RightUpLeg_virtual
	{
		OFFSET 0.000000 0.000000 0.000000
		CHANNELS 3 Xrotation Yrotation Zrotation
		JOINT RightUpLeg
		{
			OFFSET -15.569500 -6.655098 0.678600
			CHANNELS 3 Xrotation Yrotation Zrotation
			JOINT RightLeg
			{
				OFFSET -4.081825 -39.591045 13.023800
				CHANNELS 3 Xrotation Yrotation Zrotation
				JOINT RightFoot
				{
					OFFSET 4.081824 -37.707954 -15.979600
					CHANNELS 3 Xrotation Yrotation Zrotation
					JOINT RightToeBase
					{
						OFFSET -5.346400 -15.068900 20.645000
						CHANNELS 3 Xrotation Yrotation Zrotation
						JOINT RightToe_End
						{
							OFFSET -2.754700 0.931300 11.300900
							CHANNELS 3 Xrotation Yrotation Zrotation
							End Site
							{
								OFFSET 0 0 0
							}
						}
					}
				}
			}
		}
	}
	JOINT Spine_virtual
	{
		OFFSET 0.000000 0.000000 0.000000
		CHANNELS 3 Xrotation Yrotation Zrotation
		JOINT Spine
		{
			OFFSET -0.279200 12.230698 -2.892100
			CHANNELS 3 Xrotation Yrotation Zrotation
			JOINT Spine1
			{
				OFFSET -0.232667 10.192268 -1.242267
				CHANNELS 3 Xrotation Yrotation Zrotation
				JOINT Spine1_split
				{
					OFFSET -0.232667 10.192268 -1.242267
					CHANNELS 3 Xrotation Yrotation Zrotation
					JOINT Spine2
					{
						OFFSET -0.232667 10.192268 -1.242267
						CHANNELS 3 Xrotation Yrotation Zrotation
						JOINT Neck_virtual
						{
							OFFSET 0.000000 0.000000 0.000000
							CHANNELS 3 Xrotation Yrotation Zrotation
							JOINT Neck
							{
								OFFSET -0.418800 17.814194 8.416900
								CHANNELS 3 Xrotation Yrotation Zrotation
								JOINT Head
								{
									OFFSET 0.000000 7.031097 3.806800
									CHANNELS 3 Xrotation Yrotation Zrotation
									JOINT HeadTop_End
									{
										OFFSET 0.000000 24.646606 12.978600
										CHANNELS 3 Xrotation Yrotation Zrotation
										End Site
										{
											OFFSET 0 0 0
										}
									}
								}
							}
						}
						JOINT LeftShoulder_virtual
						{
							OFFSET 0.000000 0.000000 0.000000
							CHANNELS 3 Xrotation Yrotation Zrotation
							JOINT LeftShoulder
							{
								OFFSET 8.476499 7.247704 -3.868750
								CHANNELS 3 Xrotation Yrotation Zrotation
								JOINT LeftShoulder_split
								{
									OFFSET 8.476499 7.247704 -3.868750
									CHANNELS 3 Xrotation Yrotation Zrotation
									JOINT LeftArm
									{
										OFFSET 9.308998 -2.777710 0.208600
										CHANNELS 3 Xrotation Yrotation Zrotation
										JOINT LeftForeArm
										{
											OFFSET 29.972298 0.000000 0.000000
											CHANNELS 3 Xrotation Yrotation Zrotation
											JOINT LeftHand
											{
												OFFSET 26.026505 0.000000 0.000000
												CHANNELS 3 Xrotation Yrotation Zrotation
												End Site
												{
													OFFSET 0 0 0
												}
											}
										}
									}
								}
							}
						}
						JOINT RightShoulder_virtual
						{
							OFFSET 0.000000 0.000000 0.000000
							CHANNELS 3 Xrotation Yrotation Zrotation
							JOINT RightShoulder
							{
								OFFSET -7.570500 7.247704 -3.868750
								CHANNELS 3 Xrotation Yrotation Zrotation
								JOINT RightShoulder_split
								{
									OFFSET -7.570500 7.247704 -3.868750
									CHANNELS 3 Xrotation Yrotation Zrotation
									JOINT RightArm
									{
										OFFSET -9.308998 -2.777710 0.208500
										CHANNELS 3 Xrotation Yrotation Zrotation
										JOINT RightForeArm
										{
											OFFSET -29.972300 0.000000 0.000000
											CHANNELS 3 Xrotation Yrotation Zrotation
											JOINT RightHand
											{
												OFFSET -26.026505 0.000000 0.000000
												CHANNELS 3 Xrotation Yrotation Zrotation
												End Site
												{
													OFFSET 0 0 0
												}
											}
										}
									}
								}
							}
						}
					}
				}
			}
		}
	}
}
MOTION
Frames: 7
Frame Time: 0.03333333
0.344628 32.043907 -2.676949 0.000000 0.000000 0.000000 70.012178 -1.697835 0.597080 11.859083 12.263992 11.679951 7.974935 13.774705 3.859928 -50.629819 10.682401 -14.535541 -37.351398 0.492736 -8.444696 0.000000 0.000000 0.000000 71.862100 -7.344003 2.260148 10.486438 -4.567882 -12.421142 8.943610 2.062587 7.327340 -33.171350 -1.414722 17.389494 -53.953184 -1.713374 4.843294 0.000000 0.000000 0.000000 76.026692 -2.629002 -0.316171 -2.633884 2.219925 -0.211179 1.693641 1.254223 0.085893 0.829000 -1.179947 0.864539 0.000000 0.000000 0.000000 1.817637 -0.387329 0.048450 -9.626416 1.197485 2.801732 9.320544 9.259604 -5.525974 0.000000 0.000000 0.000000 2.049484 -0.642888 1.007642 2.718493 2.550090 1.451822 0.423443 1.501028 -3.213113 -43.790791 -57.110797 -48.889350 1.199513 -21.429126 0.024946 0.000000 0.000000 0.000000 1.258048 -0.423426 1.038474 0.235440 4.731489 15.646703 5.328724 9.352179 -2.777015 -56.052248 56.871365 52.382227 -0.650470 20.385634 0.592184 0.000000 0.000000 0.000000 
0.148153 32.116375 -2.790932 0.000000 0.000000 0.000000 69.954879 -1.514271 0.571249 12.153201 12.925852 11.552010 7.876055 13.875765 3.617720 -50.838577 10.423125 -14.446859 -37.950457 0.455139 -8.118799 0.000000 0.000000 0.000000 71.914727 -7.566099 2.511420 10.365796 -4.362690 -12.421519 8.961539 2.080268 7.377220 -33.248155 -1.611012 17.476796 -53.260118 -1.684357 4.823792 0.000000 0.000000 0.000000 76.353530 -2.795836 -0.068867 -2.506302 2.190418 -0.253278 1.791955 1.251430 0.065461 0.919243 -1.616419 0.919105 0.000000 0.000000 0.000000 1.813739 -0.376177 0.098307 -9.929968 0.944772 2.779808 9.199192 9.292390 -5.915290 0.000000 0.000000 0.000000 2.120113 -0.610817 1.008740 2.677572 2.671394 1.540979 0.944849 1.720349 -2.773089 -44.240850 -57.182443 -49.337632 1.331903 -20.787703 -0.105481 0.000000 0.000000 0.000000 1.421648 -0.356235 1.088710 0.200928 4.997489 15.522325 5.424121 9.104876 -2.987408 -55.788531 56.090917 51.626900 -0.628847 20.790148 0.785857 0.000000 0.000000 0.000000 
0.103649 32.255238 -2.884544 0.000000 0.000000 0.000000 69.865985 -1.531525 0.657947 12.611699 13.322409 11.389007 7.527166 13.911255 3.410752 -50.484083 10.010172 -14.708397 -38.757649 0.307694 -7.431908 0.000000 0.000000 0.000000 71.973911 -7.764353 2.738395 10.225843 -4.488858 -12.227374 8.789648 1.956140 7.317191 -33.180878 -1.939790 17.701673 -53.329851 -1.682173 4.753503 0.000000 0.000000 0.000000 76.538219 -2.942153 0.186625 -2.260789 2.101571 -0.367605 1.927280 1.218408 0.068498 0.988228 -1.984573 0.964154 0.000000 0.000000 0.000000 1.791749 -0.424969 0.201163 -10.052329 0.759786 2.728968 8.943434 9.197689 -6.104181 0.000000 0.000000 0.000000 2.261185 -0.646833 1.018084 2.662671 2.750907 1.962522 1.507103 1.967832 -2.339217 -44.421672 -57.619790 -49.810145 1.434370 -20.576846 -0.257120 0.000000 0.000000 0.000000 1.646177 -0.329209 1.165762 0.045051 5.655730 15.297049 5.571465 8.882962 -3.003116 -53.717153 54.563434 49.062789 -0.617288 22.888445 0.953261 0.000000 0.000000 0.000000 
0.159102 32.431465 -2.923351 0.000000 0.000000 0.000000 69.725146 -1.666799 0.791287 13.280023 13.398786 11.107492 6.727787 14.020099 3.362798 -49.685074 9.495587 -14.882793 -39.351865 0.098818 -6.650708 0.000000 0.000000 0.000000 72.026920 -7.875456 2.909296 10.212326 -4.903443 -11.797159 8.466345 1.685684 7.129644 -33.140614 -2.349565 17.937943 -53.831490 -1.700576 4.667864 0.000000 0.000000 0.000000 76.545985 -3.137075 0.491867 -1.932300 1.965466 -0.542529 2.074807 1.141832 0.079165 0.970252 -2.176512 0.981350 0.000000 0.000000 0.000000 1.780631 -0.537152 0.339852 -9.982625 0.671174 2.646841 8.525753 8.965978 -6.069868 0.000000 0.000000 0.000000 2.444206 -0.738710 1.042044 2.663000 2.862871 2.748828 2.074595 2.130225 -1.981465 -44.565690 -58.198608 -50.337951 1.528259 -20.992093 -0.404184 0.000000 0.000000 0.000000 1.908425 -0.347669 1.259474 -0.245438 6.771298 14.996783 5.630519 8.750333 -2.895628 -50.425518 52.513479 45.380392 -0.597841 26.182038 1.081900 0.000000 0.000000 0.000000 
0.221648 32.616978 -2.875198 0.000000 0.000000 0.000000 69.589533 -1.826957 0.937237 14.282159 13.255371 10.690785 5.212572 14.265101 3.515602 -48.806954 8.901246 -14.709941 -39.759928 -0.092954 -5.945328 0.000000 0.000000 0.000000 72.040403 -7.928166 3.034568 10.358570 -5.493052 -11.155605 8.168054 1.248178 6.809764 -33.350455 -2.784407 17.920446 -53.960304 -1.706716 4.620503 0.000000 0.000000 0.000000 76.364049 -3.368928 0.785174 -1.554096 1.815616 -0.763303 2.212635 1.017793 0.088546 1.000005 -2.390099 0.934149 0.000000 0.000000 0.000000 1.812323 -0.695218 0.493333 -9.650435 0.709596 2.533944 7.999031 8.681295 -5.836323 0.000000 0.000000 0.000000 2.662384 -0.872460 1.069388 2.659417 3.051807 3.837537 2.457926 2.158413 -1.757173 -44.714407 -58.598385 -50.779376 1.652625 -21.936841 -0.515556 0.000000 0.000000 0.000000 2.176953 -0.418926 1.362277 -0.677856 8.389135 14.598889 5.605973 8.569951 -2.813859 -46.574582 50.175126 41.234050 -0.586164 30.098424 1.164073 0.000000 0.000000 0.000000 
0.251903 32.842731 -2.737907 0.000000 0.000000 0.000000 69.409427 -2.060705 1.115961 15.493533 12.936535 10.246014 3.111022 14.405774 3.907836 -47.710053 8.341761 -14.582749 -40.186005 -0.205336 -5.319788 0.000000 0.000000 0.000000 71.984525 -7.975754 3.122314 10.549103 -6.181685 -10.344748 8.038056 0.634969 6.402554 -33.771792 -3.267743 17.626493 -53.476283 -1.683937 4.619203 0.000000 0.000000 0.000000 76.034328 -3.602147 1.000349 -1.164812 1.694020 -0.974576 2.336379 0.860700 0.091602 1.065207 -2.510688 0.784969 0.000000 0.000000 0.000000 1.905758 -0.864652 0.635196 -9.046581 0.816697 2.398963 7.462807 8.315698 -5.432484 0.000000 0.000000 0.000000 2.910504 -1.019027 1.084586 2.641058 3.272286 5.147866 2.629803 2.042210 -1.598697 -44.673979 -58.609327 -50.899157 1.832601 -23.292776 -0.588770 0.000000 0.000000 0.000000 2.462796 -0.512044 1.461191 -1.215017 10.537680 14.158673 5.330497 8.263749 -2.819477 -42.631141 47.697861 37.113523 -0.578105 34.051048 1.213887 0.000000 0.000000 0.000000 
0.241749 33.129532 -2.528606 0.000000 0.000000 0.000000 69.243433 -2.373797 1.318410 16.646117 12.405354 9.799820 0.935406 14.292064 4.486082 -46.266008 7.850344 -14.733155 -40.505812 -0.241977 -4.827673 0.000000 0.000000 0.000000 71.940347 -8.075384 3.141333 10.602159 -6.905188 -9.422417 7.967658 0.020167 5.889602 -34.198218 -3.807312 17.426762 -52.882914 -1.629591 4.605683 0.000000 0.000000 0.000000 75.699676 -3.898465 1.201649 -0.782378 1.621498 -1.127780 2.475340 0.697376 0.073524 1.051145 -2.659514 0.731710 0.000000 0.000000 0.000000 2.081510 -1.015714 0.754566 -8.260929 0.950683 2.293764 6.994816 7.894956 -4.915522 0.000000 0.000000 0.000000 3.210507 -1.153694 1.058457 2.609232 3.413055 6.622644 2.683601 1.756218 -1.536551 -44.154946 -58.140735 -50.388939 2.023466 -24.870020 -0.641511 0.000000 0.000000 0.000000 2.776955 -0.584878 1.553543 -1.815307 13.160708 13.763142 4.776771 7.890577 -2.965445 -38.936337 45.115636 33.261672 -0.577363 37.615713 1.270710 0.000000 0.000000 0.000000 
